<svg width="118" height="120" viewBox="0 0 118 120" fill="none" xmlns="http://www.w3.org/2000/svg">
<g clip-path="url(#clip0)">
<path d="M9.42021 95.2379C9.81685 97.5889 15.3698 97.8504 18.0967 97.6868L12.395 78.095C10.4118 75.7278 6.04878 71.1399 4.46222 71.7277C2.47903 72.4623 1.73533 75.9183 3.47063 79.0746C4.64121 81.2042 10.4946 85.2788 13.6345 86.9113C11.3206 85.9317 6.64374 83.9236 6.44542 83.7277C6.19752 83.4828 1.70162 82.6036 0.991636 84.7072C0.247938 86.9113 0.991636 88.1632 4.46222 89.8501C7.18961 91.176 12.163 92.0292 14.759 91.8196C12.7455 92.0081 9.03101 92.9319 9.42021 95.2379Z" fill="white"/>
<path d="M18.0967 97.6868C15.3698 97.8504 9.81685 97.5889 9.42021 95.2379C9.02357 92.8868 12.8908 91.9729 14.874 91.8093C12.3122 92.0542 7.23027 91.1961 4.46222 89.8501C0.991636 88.1632 0.247938 86.9113 0.991636 84.7072C1.70162 82.6036 6.19752 83.4828 6.44542 83.7277C6.64374 83.9236 11.3206 85.9317 13.6345 86.9113C10.4946 85.2788 4.64121 81.2042 3.47063 79.0746C1.73533 75.9183 2.47903 72.4623 4.46222 71.7277C6.04878 71.1399 10.4118 75.7278 12.395 78.095L18.0967 97.6868Z" stroke="black" stroke-width="1.5"/>
<path d="M101.887 116.789C101.887 115.564 100.069 114.259 98.9119 113.36L90.4834 116.789C92.5492 117.605 97.1766 119.238 98.664 119.238C100.647 119.238 101.887 117.672 101.887 116.789Z" fill="white" stroke="black" stroke-width="1.5"/>
<path d="M12.2691 74.4598C10.7281 89.1301 17.1626 100.398 27.4405 108.016C37.7313 115.643 51.8749 119.605 65.6933 119.605C81.0387 119.605 94.0145 117.218 103.151 110.434C112.263 103.667 117.628 92.4681 117.628 74.6665C117.628 60.4746 110.621 47.3403 100.605 37.7467C90.5859 28.15 77.5977 22.136 65.6933 22.136C51.3737 22.136 38.6822 28.9171 29.2303 38.8622C19.7769 48.8095 13.5884 61.899 12.2691 74.4598Z" fill="white" stroke="black" stroke-width="1.5"/>
<path d="M103.374 37.4422C99.2092 42.5361 91.8053 46.2585 89.2436 46.9932C88.6652 45.8503 86.6159 42.2422 83.0461 36.9524C78.584 30.3402 75.6092 29.1157 72.6344 27.4014C69.6596 25.6871 62.4705 23.483 57.5125 22.7483C58.2562 14.9116 59.7436 12.2177 59.7436 12.2177C60.9003 9.4422 64.6049 3.90651 69.6596 1.68709C71.8907 0.707498 76.105 -0.0272011 79.0798 0.952391C86.7646 3.48301 82.3024 18.0953 83.7898 15.1565C85.2772 12.2177 91.7226 7.80956 95.4411 6.58507C99.1596 5.36058 103.374 5.85038 106.844 7.80956C110.213 9.71139 111.555 11.9728 112.298 17.6055C113.042 23.2381 108.58 31.0749 103.374 37.4422Z" fill="#EB7F00" stroke="#AA5C00" stroke-width="1.5"/>
<path d="M99.9034 62.9114C97.5759 62.9114 95.6891 59.7317 95.6891 55.8093C95.6891 51.887 97.5759 48.7073 99.9034 48.7073C102.231 48.7073 104.118 51.887 104.118 55.8093C104.118 59.7317 102.231 62.9114 99.9034 62.9114Z" fill="black"/>
<path d="M99.9033 54.095C99.2188 54.095 98.6638 52.9986 98.6638 51.6461C98.6638 50.2935 99.2188 49.1971 99.9033 49.1971C100.588 49.1971 101.143 50.2935 101.143 51.6461C101.143 52.9986 100.588 54.095 99.9033 54.095Z" fill="white"/>
<path d="M65.4453 59.9726C62.9809 59.9726 60.9831 56.9025 60.9831 53.1154C60.9831 49.3283 62.9809 46.2583 65.4453 46.2583C67.9097 46.2583 69.9075 49.3283 69.9075 53.1154C69.9075 56.9025 67.9097 59.9726 65.4453 59.9726Z" fill="black"/>
<path d="M65.6934 51.646C64.735 51.646 63.9581 50.5496 63.9581 49.1971C63.9581 47.8445 64.735 46.7481 65.6934 46.7481C66.6518 46.7481 67.4287 47.8445 67.4287 49.1971C67.4287 50.5496 66.6518 51.646 65.6934 51.646Z" fill="white"/>
<path d="M108.414 65.689L111.388 67.1584" stroke="#D6BAAD" stroke-width="1.5"/>
<path d="M104.471 67.4052L105.243 70.6007" stroke="#D6BAAD" stroke-width="1.5"/>
<path d="M106.263 66.5633L108.285 69.1724" stroke="#D6BAAD" stroke-width="1.5"/>
<path d="M60.6465 64.2255L59.2374 67.2015" stroke="#D6BAAD" stroke-width="1.5"/>
<path d="M56.8369 62.59L53.9261 64.1799" stroke="#D6BAAD" stroke-width="1.5"/>
<path d="M58.7114 63.6598L56.6152 66.2106" stroke="#D6BAAD" stroke-width="1.5"/>
<path d="M79.2413 60.9414C78.7524 62.3442 78.4541 63.6588 78.986 64.8818C79.516 66.1004 80.9243 67.3415 84.1589 68.4416C86.183 69.1303 88.2642 69.3007 89.9721 68.8805C91.6691 68.4627 92.9848 67.4684 93.5619 65.8129C93.9983 64.561 93.5626 62.6885 92.4425 60.9061C91.3323 59.1399 89.6095 57.5633 87.6352 56.8918C85.6759 56.2251 83.8158 56.5685 82.3202 57.4173C80.8162 58.271 79.7 59.6258 79.2413 60.9414Z" fill="#EB7F00" stroke="#AA5C00" stroke-width="1.5"/>
<path d="M36.4938 110.359C35.9207 111.521 35.7194 112.706 35.8404 113.675C35.9613 114.648 36.3961 115.353 37.0456 115.666C37.6951 115.979 38.5251 115.883 39.3759 115.379C40.2232 114.876 41.0453 113.99 41.6184 112.828C42.192 111.667 42.3928 110.482 42.2724 109.512C42.1509 108.54 41.7161 107.834 41.0666 107.522C40.4171 107.209 39.5871 107.304 38.7363 107.809C37.889 108.312 37.067 109.198 36.4938 110.359Z" fill="white" stroke="black" stroke-width="1.5"/>
<path d="M33.1789 54.7376C34.8363 53.5264 37.2652 57.6965 38.2722 59.9329L30.9051 63.4731C30.9726 61.0663 31.5214 55.9494 33.1789 54.7376Z" fill="white" stroke="black" stroke-width="1.5"/>
</g>
<defs>
<clipPath id="clip0">
<rect width="118" height="120" fill="white" transform="matrix(-1 0 0 1 118 0)"/>
</clipPath>
</defs>
</svg>
