<svg width="235" height="296" viewBox="0 0 235 296" fill="none" xmlns="http://www.w3.org/2000/svg">
<path d="M103.773 296C159.873 296 205.35 289.077 205.35 280.537C205.35 271.998 159.873 265.075 103.773 265.075C47.6739 265.075 2.19629 271.998 2.19629 280.537C2.19629 289.077 47.6739 296 103.773 296Z" fill="#5E5E5E"/>
<path d="M32.9442 268.94C33.4932 265.075 38.9839 261.946 42.2783 260.104L61.4956 270.045C59.1163 271.702 53.5891 275.125 50.5143 275.567C47.4395 276.009 40.6311 276.119 38.4349 275.015C36.7877 274.095 32.5664 271.601 32.9442 268.94Z" fill="white"/>
<path d="M189.428 282.194C186.506 282.646 169.478 280.537 164.72 278.328C173.139 274.278 187.561 266.952 191.075 267.836C194.589 268.719 199.86 275.567 198.762 277.776C198.213 279.985 196.566 281.09 189.428 282.194Z" fill="white"/>
<path d="M32.9442 268.94C33.4932 265.075 38.9839 261.946 42.2783 260.104L61.4956 270.045C59.1163 271.702 53.5891 275.125 50.5143 275.567C47.4395 276.009 40.6311 276.119 38.4349 275.015C36.7877 274.095 32.5664 271.601 32.9442 268.94Z" stroke="black" stroke-width="1.5"/>
<path d="M189.428 282.194C186.506 282.646 169.478 280.537 164.72 278.328C173.139 274.278 187.561 266.952 191.075 267.836C194.589 268.719 199.86 275.567 198.762 277.776C198.213 279.985 196.566 281.09 189.428 282.194Z" stroke="black" stroke-width="1.5"/>
<path d="M1.9211 183.376L1.92177 183.36V183.343C1.92177 157.418 17.8221 127.798 41.2714 105.038C64.7142 82.2848 95.5246 66.5605 125.142 68.2002C184.522 71.4877 230.897 125.772 233.079 181.167C234.757 223.778 222.266 249.289 201.921 264.198C181.511 279.154 153.027 283.575 122.442 283.575C91.9432 283.575 61.1018 275.461 38.2518 258.881C15.4324 242.322 0.560599 217.313 1.9211 183.376Z" fill="white" stroke="black" stroke-width="1.5"/>
<path d="M110.362 24.2985C102.895 36.6686 104.688 61.8507 105.97 71.791C106.233 74 109.11 91.6716 113.107 91.6716C114.205 91.6716 143.306 86.1492 163.621 87.2537C179.874 88.1373 193.454 97.5621 198.212 102.164L203.154 96.6418C209.743 90.5672 212.642 84.9771 213.586 81.1791C216.332 70.1343 216.332 70.1343 216.332 61.8507C216.332 52.9977 210.292 37 202.056 33.6866C193.82 30.3731 186.682 32.0298 181.191 35.8955C171.503 42.7172 169.112 64.0597 170.759 49.1492C172.406 34.2388 167.186 21.9454 163.621 16.5672C159.229 9.94029 150.993 2.76118 140.012 1.65671C129.277 0.577118 119.696 8.83581 110.362 24.2985Z" fill="#EB7F00" stroke="#AA5C00" stroke-width="1.5"/>
<path d="M54.9065 162.358C48.8668 165.119 41.3629 157.572 37.3364 153.522C44.1083 149.657 57.7617 142.146 58.2009 143.03C58.75 144.134 60.9462 159.597 54.9065 162.358Z" stroke="black" stroke-width="1.5"/>
<path d="M147.15 185.552C144.075 182.018 149.895 172.666 152.64 167.881L166.367 184.448C161.609 186.657 150.224 189.087 147.15 185.552Z" stroke="black" stroke-width="1.5"/>
<path d="M78.4964 118.656C83.3455 120.148 89.3715 114.464 91.956 105.962C94.5404 97.4596 92.7046 89.3584 87.8555 87.8673C83.0064 86.3762 76.9803 92.0599 74.3959 100.562C71.8114 109.064 73.6473 117.165 78.4964 118.656Z" fill="black"/>
<path d="M82.7388 99.6467C84.161 100.391 86.351 98.9913 87.6303 96.5196C88.9096 94.0479 88.7938 91.4405 87.3716 90.6959C85.9493 89.9512 83.7593 91.3513 82.48 93.823C81.2007 96.2947 81.3166 98.9021 82.7388 99.6467Z" fill="white"/>
<path d="M151.896 138.262C156.944 139.722 163.336 133.787 166.174 125.006C169.013 116.225 167.221 107.923 162.174 106.464C157.126 105.004 150.734 110.939 147.896 119.72C145.057 128.501 146.849 136.802 151.896 138.262Z" fill="black"/>
<path d="M155.412 120.648C156.943 121.402 159.391 119.82 160.88 117.115C162.368 114.41 162.334 111.606 160.803 110.853C159.272 110.099 156.824 111.68 155.336 114.385C153.847 117.09 153.881 119.894 155.412 120.648Z" fill="white"/>
<path d="M122.167 130.881C122.167 135.005 120.353 137.924 117.397 139.849C114.399 141.803 110.182 142.754 105.421 142.754C100.722 142.754 96.5018 141.375 93.4773 139.19C90.4515 137.002 88.6741 134.054 88.6741 130.881C88.6741 127.705 90.8648 123.77 94.3725 120.581C97.8584 117.411 102.474 115.142 107.068 115.142C111.631 115.142 115.396 117.383 118.041 120.504C120.699 123.639 122.167 127.595 122.167 130.881Z" fill="#EB7F00" stroke="#AA5C00" stroke-width="1.5"/>
<path d="M51.4915 119.64L59.1573 118.396" stroke="#D6B6A5" stroke-width="1.5"/>
<path d="M59.6819 131.178L63.5316 124.395" stroke="#DEBABD" stroke-width="1.5"/>
<path d="M53.4114 126.74L60.2146 122.976" stroke="#D6B6A5" stroke-width="1.5"/>
<path d="M157.314 157.843L158.333 150.101" stroke="#D6B6A5" stroke-width="1.5"/>
<path d="M171.531 155.758L167.465 149.104" stroke="#DEBABD" stroke-width="1.5"/>
<path d="M164.52 157.896L163.521 150.152" stroke="#D6B6A5" stroke-width="1.5"/>
</svg>
