<svg width="118" height="120" viewBox="0 0 118 120" fill="none" xmlns="http://www.w3.org/2000/svg">
<g clip-path="url(#clip0)">
<path d="M108.58 95.2379C108.183 97.5889 102.63 97.8504 99.9033 97.6868L105.605 78.095C107.588 75.7278 111.951 71.1399 113.538 71.7277C115.521 72.4623 116.265 75.9183 114.529 79.0746C113.359 81.2042 107.505 85.2788 104.366 86.9113C106.679 85.9317 111.356 83.9236 111.555 83.7277C111.802 83.4828 116.298 82.6036 117.008 84.7072C117.752 86.9113 117.008 88.1632 113.538 89.8501C110.81 91.176 105.837 92.0292 103.241 91.8196C105.254 92.0081 108.969 92.9319 108.58 95.2379Z" fill="white"/>
<path d="M99.9033 97.6868C102.63 97.8504 108.183 97.5889 108.58 95.2379C108.976 92.8868 105.109 91.9729 103.126 91.8093C105.688 92.0542 110.77 91.1961 113.538 89.8501C117.008 88.1632 117.752 86.9113 117.008 84.7072C116.298 82.6036 111.802 83.4828 111.555 83.7277C111.356 83.9236 106.679 85.9317 104.366 86.9113C107.505 85.2788 113.359 81.2042 114.529 79.0746C116.265 75.9183 115.521 72.4623 113.538 71.7277C111.951 71.1399 107.588 75.7278 105.605 78.095L99.9033 97.6868Z" stroke="black" stroke-width="1.5"/>
<path d="M16.1133 116.789C16.1133 115.564 17.9312 114.259 19.0881 113.36L27.5166 116.789C25.4508 117.605 20.8234 119.238 19.336 119.238C17.3528 119.238 16.1132 117.672 16.1133 116.789Z" fill="white" stroke="black" stroke-width="1.5"/>
<path d="M105.731 74.4598C107.272 89.1301 100.837 100.398 90.5595 108.016C80.2687 115.643 66.1251 119.605 52.3067 119.605C36.9613 119.605 23.9855 117.218 14.8494 110.434C5.73661 103.667 0.371826 92.4681 0.371826 74.6665C0.371826 60.4746 7.37894 47.3403 17.3949 37.7467C27.4141 28.15 40.4023 22.136 52.3067 22.136C66.6263 22.136 79.3178 28.9171 88.7697 38.8622C98.2231 48.8095 104.412 61.899 105.731 74.4598Z" fill="white" stroke="black" stroke-width="1.5"/>
<path d="M14.6261 37.4422C18.7908 42.5361 26.1947 46.2585 28.7564 46.9932C29.3348 45.8503 31.3841 42.2422 34.9539 36.9524C39.416 30.3402 42.3908 29.1157 45.3656 27.4014C48.3404 25.6871 55.5295 23.483 60.4875 22.7483C59.7438 14.9116 58.2564 12.2177 58.2564 12.2177C57.0997 9.4422 53.3951 3.90651 48.3404 1.68709C46.1093 0.707498 41.895 -0.0272011 38.9202 0.952391C31.2354 3.48301 35.6976 18.0953 34.2102 15.1565C32.7228 12.2177 26.2774 7.80956 22.5589 6.58507C18.8404 5.36058 14.6261 5.85038 11.1555 7.80956C7.78653 9.71139 6.44545 11.9728 5.70175 17.6055C4.95804 23.2381 9.42024 31.0749 14.6261 37.4422Z" fill="#EB7F00" stroke="#AA5C00" stroke-width="1.5"/>
<path d="M18.0966 62.9114C20.4241 62.9114 22.3109 59.7317 22.3109 55.8093C22.3109 51.887 20.4241 48.7073 18.0966 48.7073C15.7691 48.7073 13.8823 51.887 13.8823 55.8093C13.8823 59.7317 15.7691 62.9114 18.0966 62.9114Z" fill="black"/>
<path d="M18.0967 54.095C18.7812 54.095 19.3362 52.9986 19.3362 51.6461C19.3362 50.2935 18.7812 49.1971 18.0967 49.1971C17.4121 49.1971 16.8572 50.2935 16.8572 51.6461C16.8572 52.9986 17.4121 54.095 18.0967 54.095Z" fill="white"/>
<path d="M52.5547 59.9726C55.0191 59.9726 57.0169 56.9025 57.0169 53.1154C57.0169 49.3283 55.0191 46.2583 52.5547 46.2583C50.0903 46.2583 48.0925 49.3283 48.0925 53.1154C48.0925 56.9025 50.0903 59.9726 52.5547 59.9726Z" fill="black"/>
<path d="M52.3066 51.646C53.265 51.646 54.0419 50.5496 54.0419 49.1971C54.0419 47.8445 53.265 46.7481 52.3066 46.7481C51.3482 46.7481 50.5713 47.8445 50.5713 49.1971C50.5713 50.5496 51.3482 51.646 52.3066 51.646Z" fill="white"/>
<path d="M9.58636 65.689L6.61157 67.1584" stroke="#D6BAAD" stroke-width="1.5"/>
<path d="M13.5293 67.4052L12.7566 70.6007" stroke="#D6BAAD" stroke-width="1.5"/>
<path d="M11.737 66.5633L9.71533 69.1724" stroke="#D6BAAD" stroke-width="1.5"/>
<path d="M57.3535 64.2255L58.7626 67.2015" stroke="#D6BAAD" stroke-width="1.5"/>
<path d="M61.1631 62.59L64.0739 64.1799" stroke="#D6BAAD" stroke-width="1.5"/>
<path d="M59.2886 63.6598L61.3848 66.2106" stroke="#D6BAAD" stroke-width="1.5"/>
<path d="M38.7587 60.9414C39.2476 62.3442 39.5459 63.6588 39.014 64.8818C38.484 66.1004 37.0757 67.3415 33.8411 68.4416C31.817 69.1303 29.7358 69.3007 28.0279 68.8805C26.3309 68.4627 25.0152 67.4684 24.4381 65.8129C24.0017 64.561 24.4374 62.6885 25.5575 60.9061C26.6677 59.1399 28.3905 57.5633 30.3648 56.8918C32.3241 56.2251 34.1842 56.5685 35.6798 57.4173C37.1838 58.271 38.3 59.6258 38.7587 60.9414Z" fill="#EB7F00" stroke="#AA5C00" stroke-width="1.5"/>
<path d="M81.5062 110.359C82.0793 111.521 82.2806 112.706 82.1596 113.675C82.0387 114.648 81.6039 115.353 80.9544 115.666C80.3049 115.979 79.4749 115.883 78.6241 115.379C77.7768 114.876 76.9547 113.99 76.3816 112.828C75.808 111.667 75.6072 110.482 75.7276 109.512C75.8491 108.54 76.2839 107.834 76.9334 107.522C77.5829 107.209 78.4129 107.304 79.2637 107.809C80.111 108.312 80.933 109.198 81.5062 110.359Z" fill="white" stroke="black" stroke-width="1.5"/>
<path d="M84.8211 54.7376C83.1637 53.5264 80.7348 57.6965 79.7278 59.9329L87.0949 63.4731C87.0274 61.0663 86.4786 55.9494 84.8211 54.7376Z" fill="white" stroke="black" stroke-width="1.5"/>
</g>
<defs>
<clipPath id="clip0">
<rect width="118" height="120" fill="white"/>
</clipPath>
</defs>
</svg>
