<svg width="235" height="296" viewBox="0 0 235 296" fill="none" xmlns="http://www.w3.org/2000/svg">
<g clip-path="url(#clip0)">
<path d="M117.212 286.705C117.212 282.031 123.424 275.799 126.529 273.722L127.565 272.164C141.195 265.759 167.007 252.431 169.492 256.585C171.976 260.74 172.942 270.259 171.562 273.722C170.527 276.145 168.756 281.64 164.833 279.954C161.21 278.396 160.519 269.568 159.657 264.894C159.484 266.971 159.657 270.087 159.657 272.164C159.657 274.812 158.622 280.992 157.587 284.108C156.034 288.782 149.822 293.663 148.269 293.975C146.717 294.286 143.093 296.052 139.987 292.417C137.607 289.631 143.13 279.629 147.006 272.691C145.036 275.734 142.513 279.197 141.023 280.992C138.059 284.56 129.117 289.82 125.494 290.34C121.871 290.859 117.212 289.5 117.212 286.705Z" fill="white"/>
<path d="M126.529 273.722C123.424 275.799 117.212 282.031 117.212 286.705C117.212 289.5 121.871 290.859 125.494 290.34C129.117 289.82 138.059 284.56 141.023 280.992C143.611 277.876 149.305 269.74 149.822 267.491C147.234 272.856 136.882 288.782 139.987 292.417C143.093 296.052 146.717 294.286 148.269 293.975C149.822 293.663 156.034 288.782 157.587 284.108C158.622 280.992 159.657 274.812 159.657 272.164C159.657 270.087 159.484 266.971 159.657 264.894C160.519 269.568 161.21 278.396 164.833 279.954C168.756 281.64 170.527 276.145 171.562 273.722C172.942 270.259 171.976 260.74 169.492 256.585C167.007 252.431 141.195 265.759 127.565 272.164L126.529 273.722Z" stroke="black" stroke-width="1.5"/>
<path d="M224.621 173.041C226.911 201.75 214.874 226.448 194.328 244.705C173.77 262.971 144.696 274.776 113.002 277.62C56.5552 282.684 4.62939 237.99 4.62939 167.785C4.62939 137.363 19.7702 110.026 40.0539 89.6245C60.331 69.2293 85.6488 55.8643 105.873 53.2797C157.241 53.3066 218.446 95.5947 224.621 173.041Z" fill="white" stroke="black" stroke-width="1.5"/>
<path d="M115.871 243.359C114.366 246.027 111.496 247.664 107.96 248.076C104.426 248.487 100.288 247.662 96.4042 245.457C92.5208 243.253 89.6831 240.119 88.2148 236.868C86.7463 233.616 86.6661 230.305 88.1709 227.636C89.6756 224.967 92.5464 223.331 96.0813 222.919C99.6154 222.507 103.754 223.334 107.637 225.537C111.522 227.741 114.359 230.876 115.827 234.127C117.295 237.378 117.376 240.691 115.871 243.359Z" fill="white" stroke="black" stroke-width="1.5"/>
<path d="M218.714 189.367C215.703 189.076 213.067 187.076 211.27 183.927C209.475 180.78 208.56 176.542 208.999 171.965C209.438 167.387 211.143 163.403 213.504 160.657C215.867 157.909 218.834 156.451 221.845 156.742C224.856 157.033 227.491 159.033 229.288 162.182C231.084 165.329 231.999 169.567 231.56 174.145C231.12 178.722 229.416 182.706 227.054 185.452C224.692 188.2 221.724 189.658 218.714 189.367Z" fill="white" stroke="black" stroke-width="1.5"/>
<path d="M123.941 144.936C118.765 140.782 110.828 146.321 106.342 150.129C111.69 155.149 122.699 164.566 123.941 162.073C125.494 158.957 128.46 148.563 123.941 144.936Z" stroke="black" stroke-width="1.5"/>
<path d="M142.576 134.031C140.505 138.705 147.579 145.282 150.858 149.091C155.861 143.724 164.523 132.473 159.14 130.396C152.411 127.799 144.57 129.529 142.576 134.031Z" stroke="black" stroke-width="1.5"/>
<path d="M2.2999 81.0621C3.95629 91.0326 19.2091 102.526 26.1107 107.027C30.7693 97.1604 56.3544 83.0899 65.4497 81.0621C70.1083 80.0235 92.5388 77.9463 103.754 78.4656C104.099 75.3498 105.307 67.3649 105.307 60.2902C105.307 47.3077 107.895 43.1533 99.0951 23.42C90.2955 3.68669 64.9323 0.570907 61.8266 1.09021C51.4739 2.82124 47.8503 4.72529 41.1215 14.5919C35.1243 23.3858 40.6039 55.0972 38.5334 53.02C36.877 51.3583 30.2517 42.1148 23.005 41.0762C19.3816 39.8644 10.4783 40.2453 5.92325 47.3077C0.229421 56.1358 0.229422 68.599 2.2999 81.0621Z" fill="#EB7F00" stroke="#AA5C00" stroke-width="1.5"/>
<path d="M78.6124 117.774C82.8573 124.332 83.3831 131.548 79.7867 133.891C76.1904 136.234 69.8338 132.817 65.5889 126.259C61.3441 119.701 60.8183 112.486 64.4146 110.143C68.011 107.8 74.3674 111.216 78.6124 117.774Z" fill="black"/>
<path d="M141.106 79.8474C145.35 86.4052 145.876 93.6207 142.28 95.9637C138.683 98.3068 132.327 94.8901 128.082 88.3323C123.837 81.7746 123.311 74.5591 126.907 72.216C130.504 69.8731 136.86 73.2897 141.106 79.8474Z" fill="black"/>
<path d="M131.454 75.3814C132.683 77.3164 132.701 79.5097 131.496 80.2802C130.29 81.0506 128.317 80.1065 127.088 78.1714C125.86 76.2364 125.841 74.0431 127.046 73.2726C128.252 72.5022 130.225 73.4462 131.454 75.3814Z" fill="white"/>
<path d="M68.5133 113.034C69.7421 114.968 69.761 117.162 68.5555 117.933C67.3499 118.703 65.3766 117.759 64.1477 115.823C62.9189 113.888 62.9 111.695 64.1056 110.925C65.3111 110.155 67.2845 111.099 68.5133 113.034Z" fill="white"/>
<path d="M134.845 107.213L134.852 107.231L134.86 107.249C135.86 109.379 136.131 111.261 135.897 112.923C135.663 114.587 134.917 116.071 133.814 117.396C131.596 120.059 127.975 122.028 124.399 123.405C119.706 125.212 115.971 125.872 113.154 125.371C110.391 124.88 108.461 123.266 107.342 120.343C104.46 112.808 108.4 103.948 115.327 101.28C118.806 99.9404 123.145 99.9508 126.907 101.06C130.685 102.173 133.749 104.349 134.845 107.213Z" fill="#EB7F00" stroke="#AA5C00"/>
<path d="M70.5713 147.764L67.4656 153.996" stroke="#D6B6AD"/>
<path d="M74.3533 147.512L74.145 154.853" stroke="#D6B6AD"/>
<path d="M78.8533 147.3L81.959 153.532" stroke="#D6B6AD"/>
<path d="M157.41 98.3279L162.592 102.926" stroke="#D6B6AD"/>
<path d="M160.338 94.0713L166.285 96.0628" stroke="#D6B6AD"/>
<path d="M160.354 89.7913L167.27 89.9595" stroke="#D6B6AD"/>
</g>
<defs>
<clipPath id="clip0">
<rect width="235" height="296" fill="white"/>
</clipPath>
</defs>
</svg>
