<svg width="233" height="259" viewBox="0 0 233 259" fill="none" xmlns="http://www.w3.org/2000/svg">
<path d="M35.5 251.136C36 248.136 37.6666 245.469 39.5 243.636L59.5 251.636C57.6666 252.969 52.7577 255.384 48 256.136C38.5 257.636 35.089 253.602 35.5 251.136Z" fill="#FFFBFB" stroke="black" stroke-width="1.5"/>
<path d="M9.49997 104.636C10.5846 100.297 24.8333 98.1358 33 97.6358C28.3333 104.136 18.8 117.136 18 117.136C17 117.136 7.99997 110.636 9.49997 104.636Z" fill="#EB7F00"/>
<path d="M57.5 37.1358C55.2207 49.2718 54 65.1358 56.5 79.1358L153.5 73.1358C153.5 72.1358 155.75 66.6358 153.5 57.6358C151.25 48.6358 145.5 42.1358 141 40.6358C132.318 37.7417 117 50.6358 117 49.6358C117 45.5127 118 32.6358 116 24.6358C114 16.6358 107.5 4.42147 91.5 2.13575C77.5 0.135753 61 18.5 57.5 37.1358Z" fill="#EB7F00"/>
<path d="M9.49997 104.636C10.5846 100.297 24.8333 98.1358 33 97.6358C28.3333 104.136 18.8 117.136 18 117.136C17 117.136 7.99997 110.636 9.49997 104.636Z" stroke="#AA5C00" stroke-width="2"/>
<path d="M57.5 37.1358C55.2207 49.2718 54 65.1358 56.5 79.1358L153.5 73.1358C153.5 72.1358 155.75 66.6358 153.5 57.6358C151.25 48.6358 145.5 42.1358 141 40.6358C132.318 37.7417 117 50.6358 117 49.6358C117 45.5127 118 32.6358 116 24.6358C114 16.6358 107.5 4.42147 91.5 2.13575C77.5 0.135753 61 18.5 57.5 37.1358Z" stroke="#AA5C00" stroke-width="2"/>
<path d="M213.75 169.636C213.75 190.762 212.234 212.757 198.483 229.5C184.755 246.215 158.658 257.886 109 257.886C76.8386 257.886 49.7659 251.152 30.7533 237.341C11.7756 223.556 0.75 202.666 0.75 174.136C0.75 149.843 11.7914 121.888 30.8777 100.004C49.9551 78.13 77.0114 62.3858 109 62.3858C146.707 62.3858 172.876 81.474 189.644 104.453C206.434 127.461 213.75 154.309 213.75 169.636Z" fill="white" stroke="black" stroke-width="1.5"/>
<path d="M200.5 202.5C207.5 198 218.5 188.5 225.5 190.5C231.107 192.102 236.5 200.5 223.5 208C218.787 210.719 208.333 214.5 204.5 216.5C209.833 215.167 220.736 213.068 224 214C227.5 215 230 220.5 220 226C213.513 228.317 200.501 227.542 198.309 227.098C199.641 227.793 204.5 230.917 204.5 233C204.5 235.5 202 238.5 197 238.5C193 238.5 187.667 235.833 185.5 234.5L200.5 202.5Z" fill="white"/>
<path d="M200.5 202.5C207.5 198 218.5 188.5 225.5 190.5C231.107 192.102 236.5 200.5 223.5 208C218.787 210.719 208.333 214.5 204.5 216.5C209.833 215.167 220.736 213.068 224 214C227.5 215 230 220.5 220 226C213 228.5 198.4 227.4 198 227C197.5 226.5 204.5 230.5 204.5 233C204.5 235.5 202 238.5 197 238.5C193 238.5 187.667 235.833 185.5 234.5L200.5 202.5Z" stroke="black" stroke-width="1.5"/>
<path d="M47.9237 113.19C51.4523 115.849 57.9501 113.178 62.4371 107.224C66.924 101.269 67.7009 94.2866 64.1723 91.6277C60.6437 88.9687 54.1459 91.6401 49.6589 97.5945C45.172 103.549 44.3951 110.531 47.9237 113.19Z" fill="black"/>
<path d="M58.47 98.1753C59.558 99.0253 61.4895 98.3712 62.784 96.7143C64.0786 95.0573 64.246 93.025 63.158 92.1749C62.07 91.3249 60.1385 91.979 58.844 93.636C57.5494 95.2929 57.382 97.3252 58.47 98.1753Z" fill="white"/>
<path d="M51.5 134.136V127.121M58 134.65L56.5 127.636L58 134.65ZM45 133.136L47.6425 126.121L45 133.136Z" stroke="#D6BAAD" stroke-width="2"/>
<path d="M185.65 233.347L200.65 202.347" stroke="white" stroke-width="3"/>
</svg>
