<svg width="21" height="18" viewBox="0 0 21 18" fill="none" xmlns="http://www.w3.org/2000/svg">
<path fill-rule="evenodd" clip-rule="evenodd" d="M10.1599 2.11765C5.94668 2.11765 2.53116 5.19898 2.53116 9C2.53116 12.801 5.94668 15.8824 10.1599 15.8824C14.3732 15.8824 17.7887 12.801 17.7887 9C17.7887 5.19898 14.3732 2.11765 10.1599 2.11765ZM0.183838 9C0.183838 4.02944 4.65029 0 10.1599 0C15.6696 0 20.136 4.02944 20.136 9C20.136 13.9706 15.6696 18 10.1599 18C4.65029 18 0.183838 13.9706 0.183838 9Z" fill="black"/>
<path fill-rule="evenodd" clip-rule="evenodd" d="M10.1599 7.94118C10.8081 7.94118 11.3336 8.41523 11.3336 9V12.1765C11.3336 12.7612 10.8081 13.2353 10.1599 13.2353C9.51175 13.2353 8.98628 12.7612 8.98628 12.1765V9C8.98628 8.41523 9.51175 7.94118 10.1599 7.94118Z" fill="black"/>
<path fill-rule="evenodd" clip-rule="evenodd" d="M8.98628 5.82353C8.98628 5.23876 9.51175 4.76471 10.1599 4.76471H10.1687C10.8169 4.76471 11.3424 5.23876 11.3424 5.82353C11.3424 6.4083 10.8169 6.88235 10.1687 6.88235H10.1599C9.51175 6.88235 8.98628 6.4083 8.98628 5.82353Z" fill="black"/>
</svg>
